<?xml version="1.0" ?>
<!-- Uploaded to: SVG Repo, www.svgrepo.com, Generator: SVG Repo Mixer Tools -->
<svg width="800px" height="800px" viewBox="0 0 20 20" version="1.1" xmlns="http://www.w3.org/2000/svg">
<g id="layer1">
<path d="M 0 4 L 0 17 L 11 17 L 11 16 L 1.6621094 16 L 7.296875 11.753906 L 7.2988281 11.751953 L 6.46875 11.126953 L 6.4667969 11.128906 L 1 15.246094 L 1 5.9335938 L 9.0488281 12 L 10.951172 12 L 19 5.9335938 L 19 9.7949219 C 19.38074 10.059605 19.716532 10.382368 20 10.75 L 20 4 L 0 4 z M 1.6621094 5 L 18.337891 5 L 10.376953 11 L 9.6230469 11 L 1.6621094 5 z M 16.5 11 C 15.12521 11 14 12.12521 14 13.5 L 14 15 L 13 15 L 13 20 L 20 20 L 20 15 L 19 15 L 19 13.5 C 19 12.12521 17.87479 11 16.5 11 z M 16.5 12 C 17.334349 12 18 12.665651 18 13.5 L 18 15 L 15 15 L 15 13.5 C 15 12.665651 15.665651 12 16.5 12 z M 14 16 L 19 16 L 19 19 L 14 19 L 14 16 z " style="fill:#222222; fill-opacity:1; stroke:none; stroke-width:0px;"/>
</g>
</svg>